<?xml version="1.0" encoding="UTF-8"?>
<!DOCTYPE svg PUBLIC "-//W3C//DTD SVG 1.1//EN" "http://www.w3.org/Graphics/SVG/1.1/DTD/svg11.dtd">
<!-- Creator: CorelDRAW X7 -->
<svg xmlns="http://www.w3.org/2000/svg" xml:space="preserve" width="12.5714mm" height="10.6892mm" version="1.1" style="shape-rendering:geometricPrecision; text-rendering:geometricPrecision; image-rendering:optimizeQuality; fill-rule:evenodd; clip-rule:evenodd"
viewBox="0 0 1257 1069"
 xmlns:xlink="http://www.w3.org/1999/xlink">
 <defs>
  <style type="text/css">
   <![CDATA[
    .fil0 {fill:white;fill-rule:nonzero}
   ]]>
  </style>
 </defs>
 <g id="Camada_x0020_1">
  <metadata id="CorelCorpID_0Corel-Layer"/>
  <g id="_2093124051904">
   <path class="fil0" d="M1239 458l-262 -202 0 -209c0,-26 -20,-47 -46,-47 -26,0 -47,21 -47,47l0 138 -227 -175c-8,-7 -18,-10 -28,-10l-1 0c-10,0 -20,3 -28,10l-582 448c-12,9 -18,22 -18,36l0 1c0,10 3,20 10,28 15,20 45,24 65,9l51 -40 0 530c0,26 21,47 47,47l812 0 -186 -186c-49,33 -107,52 -170,52 -170,0 -307,-137 -307,-307 0,-169 137,-306 307,-306 169,0 306,137 306,306 0,62 -18,119 -49,167l238 238c1,-4 1,-7 1,-11l0 -534 57 44c9,6 19,9 29,9 13,0 27,-6 36,-18 16,-20 12,-49 -8,-65z"/>
   <path class="fil0" d="M629 367c-143,0 -259,115 -259,258 0,142 116,258 259,258 142,0 258,-115 258,-258 0,-143 -116,-258 -258,-258zm168 293c-21,0 -38,-18 -38,-39 0,-74 -61,-134 -134,-134 -22,0 -39,-17 -39,-39 0,-21 17,-39 39,-39 116,0 211,95 211,212 0,21 -17,39 -39,39z"/>
  </g>
 </g>
</svg>
