<?xml version="1.0" encoding="UTF-8"?>
<!DOCTYPE svg PUBLIC "-//W3C//DTD SVG 1.1//EN" "http://www.w3.org/Graphics/SVG/1.1/DTD/svg11.dtd">
<!-- Creator: CorelDRAW X7 -->
<svg xmlns="http://www.w3.org/2000/svg" xml:space="preserve" width="23.7829mm" height="18.1763mm" version="1.1" style="shape-rendering:geometricPrecision; text-rendering:geometricPrecision; image-rendering:optimizeQuality; fill-rule:evenodd; clip-rule:evenodd"
viewBox="0 0 2378 1818"
 xmlns:xlink="http://www.w3.org/1999/xlink">
 <defs>
  <style type="text/css">
   <![CDATA[
    .fil0 {fill:black;fill-rule:nonzero}
   ]]>
  </style>
 </defs>
 <g id="Camada_x0020_1">
  <metadata id="CorelCorpID_0Corel-Layer"/>
  <g id="_2058686640304">
   <polygon class="fil0" points="384,1216 384,1426 200,1426 200,1216 0,1216 0,1809 200,1809 200,1591 384,1591 384,1809 584,1809 584,1216 "/>
   <polygon id="1" class="fil0" points="681,1809 881,1809 881,1216 681,1216 "/>
   <path id="2" class="fil0" d="M1332 1809l213 0 -124 -183c71,-36 111,-100 111,-186 0,-137 -105,-224 -270,-224l-285 0 0 593 200 0 0 -149 54 0 101 149zm-1 -369c0,43 -26,69 -81,69l-73 0 0 -138 73 0c55,0 81,26 81,69z"/>
   <polygon id="3" class="fil0" points="1804,1658 1804,1581 2055,1581 2055,1437 1804,1437 1804,1367 2090,1367 2090,1216 1608,1216 1608,1809 2101,1809 2101,1658 "/>
   <path id="4" class="fil0" d="M2267 1818c63,0 111,-46 111,-110 0,-66 -48,-109 -111,-109 -64,0 -112,43 -112,109 0,64 48,110 112,110z"/>
   <g>
    <path class="fil0" d="M1789 458l-261 -202 0 -209c0,-26 -21,-47 -47,-47 -25,0 -46,21 -46,47l0 138 -228 -175c-8,-7 -18,-10 -28,-10l0 0c-10,0 -20,3 -28,10l-582 448c-12,9 -18,22 -19,36l0 1c1,10 4,20 10,28 16,20 45,24 65,9l52 -40 0 530c0,26 20,47 46,47l812 0 -186 -186c-48,33 -107,52 -170,52 -169,0 -307,-137 -307,-307 0,-169 138,-306 307,-306 169,0 306,137 306,306 0,62 -18,119 -49,167l238 238c1,-4 2,-7 2,-11l0 -534 57 44c8,6 18,9 28,9 14,0 28,-6 37,-18 16,-20 12,-49 -9,-65z"/>
    <path class="fil0" d="M1179 367c-143,0 -258,115 -258,258 0,142 115,258 258,258 143,0 258,-115 258,-258 0,-143 -115,-258 -258,-258zm169 293c-22,0 -39,-18 -39,-39 0,-74 -60,-134 -134,-134 -21,0 -39,-17 -39,-39 0,-21 18,-39 39,-39 117,0 212,95 212,212 0,21 -18,39 -39,39z"/>
   </g>
  </g>
 </g>
</svg>
